<svg xmlns="http://www.w3.org/2000/svg" xmlns:xlink="http://www.w3.org/1999/xlink" width="458.28" height="97.82pt"
    viewBox="0 0 343.71 97.82">
    <symbol id="a">
        <path
            d="M.445.35V.29h.118V.106A.177.177 0 0 0 .511.08a.282.282 0 0 0-.163.01.234.234 0 0 0-.139.14.325.325 0 0 0-.02.12.36.36 0 0 0 .019.121c.013.035.03.066.053.09a.22.22 0 0 0 .08.056c.031.013.065.02.1.02A.197.197 0 0 0 .567.594.35.35 0 0 0 .618.548.691.691 0 0 0 .664.49l.07.064a.378.378 0 0 1-.13.117.373.373 0 0 1-.192.052.444.444 0 0 1-.213-.047A.348.348 0 0 1 0 .35.329.329 0 0 1 .115.096.389.389 0 0 1 .247.025.525.525 0 0 1 .413 0a.781.781 0 0 1 .183.023.512.512 0 0 1 .071.026 1.2 1.2 0 0 1 .067.033V.35H.445z" />
    </symbol>
    <use xlink:href="#a" transform="matrix(43.6317 0 0 -43.6317 20.783 61.959)" />
    <symbol id="b">
        <path
            d="M.159 0v.377a.348.348 0 0 0 .028.05.07.07 0 0 0 .016.016c.005.004.01.006.016.006C.23.45.238.447.245.443A.241.241 0 0 0 .265.43.119.119 0 0 1 .287.417.071.071 0 0 1 .318.411c.01 0 .018.002.027.005a.063.063 0 0 1 .022.013.06.06 0 0 1 .015.02.063.063 0 0 1 .005.025c0 .01-.003.019-.008.027a.087.087 0 0 1-.022.023.135.135 0 0 1-.073.021.146.146 0 0 1-.067-.017.238.238 0 0 1-.058-.043v.039H0V0h.159z" />
    </symbol>
    <use xlink:href="#b" transform="matrix(43.6317 0 0 -43.6317 56.422 61.49)" />
    <symbol id="c">
        <path
            d="M.29 0a.289.289 0 0 1 .269.172.274.274 0 0 1 0 .213.263.263 0 0 1-.154.139.32.32 0 0 1-.116.02.317.317 0 0 1-.116-.02.274.274 0 0 1-.152-.146.28.28 0 0 1 0-.216A.257.257 0 0 1 .174.02.317.317 0 0 1 .29 0m.018.064a.09.09 0 0 0-.058.02.16.16 0 0 0-.043.053.286.286 0 0 0-.027.079.458.458 0 0 0-.01.096A.253.253 0 0 0 .2.43a.123.123 0 0 0 .03.037c.012.01.024.014.037.014a.112.112 0 0 0 .066-.02A.146.146 0 0 0 .376.41.273.273 0 0 0 .401.332.587.587 0 0 0 .408.237.283.283 0 0 0 .38.117.118.118 0 0 0 .348.077a.062.062 0 0 0-.04-.014z" />
    </symbol>
    <use xlink:href="#c" transform="matrix(43.6317 0 0 -43.6317 72.126 61.916)" />
    <symbol id="d">
        <path
            d="M.27 0c.028 0 .057.005.085.016a.316.316 0 0 1 .143.11.26.26 0 0 1 .04.08L.455.22A.148.148 0 0 0 .433.174.18.18 0 0 0 .349.112.158.158 0 0 0 .297.104.093.093 0 0 0 .242.12.155.155 0 0 0 .198.17a.26.26 0 0 0-.03.07.351.351 0 0 0-.012.083H.52A.219.219 0 0 1 .373.53a.276.276 0 0 1-.1.017A.275.275 0 0 1 .16.524a.248.248 0 0 1-.086-.06A.268.268 0 0 1 .02.371.325.325 0 0 1 0 .257a.253.253 0 0 1 .079-.18A.276.276 0 0 1 .269 0m.068.376h-.18a.143.143 0 0 0 .03.076.088.088 0 0 0 .026.021c.01.005.02.007.03.007A.084.084 0 0 0 .276.473a.093.093 0 0 0 .03-.021.116.116 0 0 0 .02-.033.143.143 0 0 0 .01-.043z" />
    </symbol>
    <use xlink:href="#d" transform="matrix(43.6317 0 0 -43.6317 97.842 62.001)" />
    <symbol id="e">
        <path
            d="M0 .745V.07A.287.287 0 0 1 .101.017.413.413 0 0 1 .221 0C.261 0 .3.008.337.024A.31.31 0 0 1 .523.31.243.243 0 0 1 .46.475a.216.216 0 0 1-.268.042A.253.253 0 0 1 .16.5v.29L0 .745m.16-.64v.29a.134.134 0 0 0 .042.033.093.093 0 0 0 .046.013C.263.441.278.437.29.428A.12.12 0 0 0 .326.393.217.217 0 0 0 .36.28.371.371 0 0 0 .35.195.269.269 0 0 0 .326.128.137.137 0 0 0 .29.084.08.08 0 0 0 .24.068a.096.096 0 0 0-.045.011.23.23 0 0 0-.035.026z" />
    </symbol>
    <use xlink:href="#e" transform="matrix(43.6317 0 0 -43.6317 122.745 61.916)" />
    <symbol id="f">
        <path
            d="M.323.359V0h.159v.375a.149.149 0 0 1-.013.062.167.167 0 0 1-.086.085.154.154 0 0 1-.06.013A.292.292 0 0 1 .16.483v.04H0V0h.16v.384a.272.272 0 0 0 .087.053.078.078 0 0 0 .024.005A.04.04 0 0 0 .29.437.06.06 0 0 0 .307.42.085.085 0 0 0 .32.395.134.134 0 0 0 .323.359z" />
    </symbol>
    <use xlink:href="#f" transform="matrix(43.6317 0 0 -43.6317 147.052 61.49)" />
    <use xlink:href="#d" transform="matrix(43.6317 0 0 -43.6317 169.551 62.001)" />
    <use xlink:href="#b" transform="matrix(43.6317 0 0 -43.6317 194.455 61.49)" />
    <symbol id="g">
        <path
            d="M0 .07C0 .06.001.051.005.042A.064.064 0 0 1 .042.005.067.067 0 0 1 .07 0c.01 0 .02.001.028.005A.064.064 0 0 1 .121.02a.073.073 0 0 1 .02.05C.142.08.14.09.137.098a.073.073 0 0 1-.038.037.068.068 0 0 1-.056 0A.073.073 0 0 1 .02.12.064.064 0 0 1 .005.098.065.065 0 0 1 0 .07z" />
    </symbol>
    <use xlink:href="#g" transform="matrix(43.6317 0 0 -43.6317 211.01 61.959)" />
    <symbol id="h">
        <path
            d="M.358.219v.54L.198.713V.141A.365.365 0 0 0 .191.08C.19.074.186.07.183.067A.022.022 0 0 0 .17.064a.025.025 0 0 0-.014.005.08.08 0 0 0-.018.02L.127.101a.087.087 0 0 1-.014.013.092.092 0 0 1-.018.01.066.066 0 0 1-.022.004A.08.08 0 0 1 .02.112.052.052 0 0 1 0 .071C0 .06.003.052.009.043A.073.073 0 0 1 .036.021.15.15 0 0 1 .079.005a.466.466 0 0 1 .149.002c.027.006.05.017.07.033a.155.155 0 0 1 .044.066c.01.028.016.066.016.113M.19.91A.07.07 0 0 1 .216.855.085.085 0 0 1 .244.84a.095.095 0 0 1 .066 0c.01.004.02.01.027.016A.077.077 0 0 1 .356.88a.07.07 0 0 1 0 .06.083.083 0 0 1-.046.041.093.093 0 0 1-.094-.017A.072.072 0 0 1 .191.91z" />
    </symbol>
    <use xlink:href="#h" transform="matrix(43.6317 0 0 -43.6317 210.859 71.034)" />
    <symbol id="i">
        <path d="M.158 0v.779L0 .735V0h.158z" />
    </symbol>
    <use xlink:href="#i" transform="matrix(43.6317 0 0 -43.6317 229.437 61.49)" />
    <path
        d="M284.58 45.185c0-7.411-6.008-13.42-13.42-13.42-7.41 0-13.419 6.009-13.419 13.42s6.008 13.42 13.42 13.42c7.411 0 13.419-6.009 13.419-13.42zm-13.42 0"
        fill="#cb3c33" />
    <path stroke-width=".20961100000000002" stroke-miterlimit="10" fill="none" stroke="#cb3c33"
        d="M284.58 45.185c0-7.411-6.008-13.42-13.42-13.42-7.41 0-13.419 6.009-13.419 13.42s6.008 13.42 13.42 13.42c7.411 0 13.419-6.009 13.419-13.42zm-13.42 0" />
    <path
        d="M342.73 45.185c0-7.411-6.007-13.42-13.419-13.42-7.41 0-13.419 6.009-13.419 13.42s6.008 13.42 13.42 13.42c7.41 0 13.419-6.009 13.419-13.42zm-13.419 0"
        fill="#9558b2" />
    <path stroke-width=".20961100000000002" stroke-miterlimit="10" fill="none" stroke="#9558b2"
        d="M342.73 45.185c0-7.411-6.007-13.42-13.419-13.42-7.41 0-13.419 6.009-13.419 13.42s6.008 13.42 13.42 13.42c7.41 0 13.419-6.009 13.419-13.42zm-13.419 0" />
    <path
        d="M313.655 16.11c0-7.412-6.008-13.42-13.419-13.42-7.411 0-13.42 6.008-13.42 13.42 0 7.411 6.009 13.42 13.42 13.42s13.42-6.009 13.42-13.42zm-13.419 0"
        fill="#389826" />
    <path stroke-width=".20961100000000002" stroke-miterlimit="10" fill="none" stroke="#389826"
        d="M313.655 16.11c0-7.412-6.008-13.42-13.419-13.42-7.411 0-13.42 6.008-13.42 13.42 0 7.411 6.009 13.42 13.42 13.42s13.42-6.009 13.42-13.42zm-13.419 0" />
    <path
        d="M313.655 74.26c0-7.41-6.008-13.419-13.419-13.419-7.411 0-13.42 6.008-13.42 13.42 0 7.41 6.009 13.419 13.42 13.419s13.42-6.008 13.42-13.42zm-13.419 0"
        fill="#4063d8" />
    <path stroke-width=".20961100000000002" stroke-miterlimit="10" fill="none" stroke="#4063d8"
        d="M313.655 74.26c0-7.41-6.008-13.419-13.419-13.419-7.411 0-13.42 6.008-13.42 13.42 0 7.41 6.009 13.419 13.42 13.419s13.42-6.008 13.42-13.42zm-13.419 0" />
    <path stroke-width="8.946208" stroke-miterlimit="10" fill="none" stroke="#000" d="m289.927 26.419-3.366 3.365" />
    <path d="m282.181 34.164 8.619.57-4.594-4.594-4.595-4.594z" />
    <path stroke-width="2.013002" stroke-linejoin="round" fill="none" stroke="#000"
        d="m282.181 34.164 8.619.57-4.594-4.594-4.595-4.594z" />
    <path stroke-width="5.277884" stroke-miterlimit="10" fill="none" stroke="#fff" d="m288.63 27.716-3.083 3.083" />
    <path d="m283.154 33.192 4.801.402-2.602-2.601-2.602-2.602z" fill="#fff" />
    <path stroke-width="1.095921" stroke-linejoin="round" fill="none" stroke="#fff"
        d="m283.154 33.192 4.801.402-2.602-2.601-2.602-2.602z" />
    <path stroke-width="8.946208" stroke-miterlimit="10" fill="none" stroke="#000" d="m281.47 55.494 3.365 3.366" />
    <path d="m289.215 63.24.57-8.619-4.594 4.595-4.594 4.594z" />
    <path stroke-width="2.013002" stroke-linejoin="round" fill="none" stroke="#000"
        d="m289.215 63.24.57-8.619-4.594 4.595-4.594 4.594z" />
    <path stroke-width="5.277884" stroke-miterlimit="10" fill="none" stroke="#fff" d="m282.767 56.791 3.083 3.083" />
    <path d="m288.243 62.267.402-4.8-2.601 2.6-2.602 2.603z" fill="#fff" />
    <path stroke-width="1.095921" stroke-linejoin="round" fill="none" stroke="#fff"
        d="m288.243 62.267.402-4.8-2.601 2.6-2.602 2.603z" />
    <path stroke-width="8.946208" stroke-miterlimit="10" fill="none" stroke="#000" d="m310.545 26.419 3.366 3.365" />
    <path d="m318.29 34.164.571-8.618-4.594 4.594-4.595 4.595z" />
    <path stroke-width="2.013002" stroke-linejoin="round" fill="none" stroke="#000"
        d="m318.29 34.164.571-8.618-4.594 4.594-4.595 4.595z" />
    <path stroke-width="5.277884" stroke-miterlimit="10" fill="none" stroke="#fff" d="m311.842 27.716 3.083 3.083" />
    <path d="m317.318 33.192.403-4.801-2.602 2.602-2.602 2.601z" fill="#fff" />
    <path stroke-width="1.095921" stroke-linejoin="round" fill="none" stroke="#fff"
        d="m317.318 33.192.403-4.801-2.602 2.602-2.602 2.601z" />
    <path stroke-width="8.946208" stroke-miterlimit="10" fill="none" stroke="#000" d="m319.003 55.494-3.366 3.366" />
    <path d="m311.257 63.24 8.618.57-4.594-4.594-4.594-4.595z" />
    <path stroke-width="2.013002" stroke-linejoin="round" fill="none" stroke="#000"
        d="m311.257 63.24 8.618.57-4.594-4.594-4.594-4.595z" />
    <path stroke-width="5.277884" stroke-miterlimit="10" fill="none" stroke="#fff" d="m317.706 56.791-3.084 3.083" />
    <path d="m312.23 62.267 4.8.403-2.601-2.602-2.602-2.602z" fill="#fff" />
    <path stroke-width="1.095921" stroke-linejoin="round" fill="none" stroke="#fff"
        d="m312.23 62.267 4.8.403-2.601-2.602-2.602-2.602z" />
</svg>